<svg id="visual" viewBox="0 0 695 285" width="695" height="285" xmlns="http://www.w3.org/2000/svg" xmlns:xlink="http://www.w3.org/1999/xlink" version="1.1"><path d="M604 285L610.8 278.2C617.7 271.3 631.3 257.7 640.5 244.2C649.7 230.7 654.3 217.3 655.5 203.8C656.7 190.3 654.3 176.7 646.3 163C638.3 149.3 624.7 135.7 619 122C613.3 108.3 615.7 94.7 622.5 81.2C629.3 67.7 640.7 54.3 641.8 40.8C643 27.3 634 13.7 629.5 6.8L625 0L695 0L695 6.8C695 13.7 695 27.3 695 40.8C695 54.3 695 67.7 695 81.2C695 94.7 695 108.3 695 122C695 135.7 695 149.3 695 163C695 176.7 695 190.3 695 203.8C695 217.3 695 230.7 695 244.2C695 257.7 695 271.3 695 278.2L695 285Z" fill="#969ff6"></path><path d="M381 285L397.3 278.2C413.7 271.3 446.3 257.7 464.8 244.2C483.3 230.7 487.7 217.3 481.8 203.8C476 190.3 460 176.7 454.3 163C448.7 149.3 453.3 135.7 464.8 122C476.3 108.3 494.7 94.7 505 81.2C515.3 67.7 517.7 54.3 520 40.8C522.3 27.3 524.7 13.7 525.8 6.8L527 0L626 0L630.5 6.8C635 13.7 644 27.3 642.8 40.8C641.7 54.3 630.3 67.7 623.5 81.2C616.7 94.7 614.3 108.3 620 122C625.7 135.7 639.3 149.3 647.3 163C655.3 176.7 657.7 190.3 656.5 203.8C655.3 217.3 650.7 230.7 641.5 244.2C632.3 257.7 618.7 271.3 611.8 278.2L605 285Z" fill="#8b95f8"></path><path d="M353 285L370.5 278.2C388 271.3 423 257.7 438.2 244.2C453.3 230.7 448.7 217.3 435.8 203.8C423 190.3 402 176.7 399.7 163C397.3 149.3 413.7 135.7 433.3 122C453 108.3 476 94.7 484.2 81.2C492.3 67.7 485.7 54.3 482.3 40.8C479 27.3 479 13.7 479 6.8L479 0L528 0L526.8 6.8C525.7 13.7 523.3 27.3 521 40.8C518.7 54.3 516.3 67.7 506 81.2C495.7 94.7 477.3 108.3 465.8 122C454.3 135.7 449.7 149.3 455.3 163C461 176.7 477 190.3 482.8 203.8C488.7 217.3 484.3 230.7 465.8 244.2C447.3 257.7 414.7 271.3 398.3 278.2L382 285Z" fill="#818af9"></path><path d="M333 285L349.2 278.2C365.3 271.3 397.7 257.7 411.5 244.2C425.3 230.7 420.7 217.3 402.2 203.8C383.7 190.3 351.3 176.7 350.2 163C349 149.3 379 135.7 404.5 122C430 108.3 451 94.7 455.7 81.2C460.3 67.7 448.7 54.3 442.8 40.8C437 27.3 437 13.7 437 6.8L437 0L480 0L480 6.8C480 13.7 480 27.3 483.3 40.8C486.7 54.3 493.3 67.7 485.2 81.2C477 94.7 454 108.3 434.3 122C414.7 135.7 398.3 149.3 400.7 163C403 176.7 424 190.3 436.8 203.8C449.7 217.3 454.3 230.7 439.2 244.2C424 257.7 389 271.3 371.5 278.2L354 285Z" fill="#7680fb"></path><path d="M298 285L314.2 278.2C330.3 271.3 362.7 257.7 375.3 244.2C388 230.7 381 217.3 367.2 203.8C353.3 190.3 332.7 176.7 333.8 163C335 149.3 358 135.7 381.2 122C404.3 108.3 427.7 94.7 432.3 81.2C437 67.7 423 54.3 414.8 40.8C406.7 27.3 404.3 13.7 403.2 6.8L402 0L438 0L438 6.8C438 13.7 438 27.3 443.8 40.8C449.7 54.3 461.3 67.7 456.7 81.2C452 94.7 431 108.3 405.5 122C380 135.7 350 149.3 351.2 163C352.3 176.7 384.7 190.3 403.2 203.8C421.7 217.3 426.3 230.7 412.5 244.2C398.7 257.7 366.3 271.3 350.2 278.2L334 285Z" fill="#6c75fb"></path><path d="M208 285L230 278.2C252 271.3 296 257.7 312.2 244.2C328.3 230.7 316.7 217.3 307.3 203.8C298 190.3 291 176.7 298 163C305 149.3 326 135.7 342.2 122C358.3 108.3 369.7 94.7 374.2 81.2C378.7 67.7 376.3 54.3 372.8 40.8C369.3 27.3 364.7 13.7 362.3 6.8L360 0L403 0L404.2 6.8C405.3 13.7 407.7 27.3 415.8 40.8C424 54.3 438 67.7 433.3 81.2C428.7 94.7 405.3 108.3 382.2 122C359 135.7 336 149.3 334.8 163C333.7 176.7 354.3 190.3 368.2 203.8C382 217.3 389 230.7 376.3 244.2C363.7 257.7 331.3 271.3 315.2 278.2L299 285Z" fill="#616bfc"></path><path d="M187 285L205.5 278.2C224 271.3 261 257.7 278.3 244.2C295.7 230.7 293.3 217.3 288.7 203.8C284 190.3 277 176.7 284 163C291 149.3 312 135.7 325.8 122C339.7 108.3 346.3 94.7 345.2 81.2C344 67.7 335 54.3 328.2 40.8C321.3 27.3 316.7 13.7 314.3 6.8L312 0L361 0L363.3 6.8C365.7 13.7 370.3 27.3 373.8 40.8C377.3 54.3 379.7 67.7 375.2 81.2C370.7 94.7 359.3 108.3 343.2 122C327 135.7 306 149.3 299 163C292 176.7 299 190.3 308.3 203.8C317.7 217.3 329.3 230.7 313.2 244.2C297 257.7 253 271.3 231 278.2L209 285Z" fill="#575ffc"></path><path d="M152 285L168.2 278.2C184.3 271.3 216.7 257.7 234 244.2C251.3 230.7 253.7 217.3 253.7 203.8C253.7 190.3 251.3 176.7 252.5 163C253.7 149.3 258.3 135.7 270 122C281.7 108.3 300.3 94.7 307.3 81.2C314.3 67.7 309.7 54.3 306.2 40.8C302.7 27.3 300.3 13.7 299.2 6.8L298 0L313 0L315.3 6.8C317.7 13.7 322.3 27.3 329.2 40.8C336 54.3 345 67.7 346.2 81.2C347.3 94.7 340.7 108.3 326.8 122C313 135.7 292 149.3 285 163C278 176.7 285 190.3 289.7 203.8C294.3 217.3 296.7 230.7 279.3 244.2C262 257.7 225 271.3 206.5 278.2L188 285Z" fill="#4b54fc"></path><path d="M110 285L130.8 278.2C151.7 271.3 193.3 257.7 213 244.2C232.7 230.7 230.3 217.3 229.2 203.8C228 190.3 228 176.7 229.2 163C230.3 149.3 232.7 135.7 244.3 122C256 108.3 277 94.7 287.5 81.2C298 67.7 298 54.3 294.5 40.8C291 27.3 284 13.7 280.5 6.8L277 0L299 0L300.2 6.8C301.3 13.7 303.7 27.3 307.2 40.8C310.7 54.3 315.3 67.7 308.3 81.2C301.3 94.7 282.7 108.3 271 122C259.3 135.7 254.7 149.3 253.5 163C252.3 176.7 254.7 190.3 254.7 203.8C254.7 217.3 252.3 230.7 235 244.2C217.7 257.7 185.3 271.3 169.2 278.2L153 285Z" fill="#3f48fb"></path><path d="M82 285L98.3 278.2C114.7 271.3 147.3 257.7 153.2 244.2C159 230.7 138 217.3 124 203.8C110 190.3 103 176.7 114.7 163C126.3 149.3 156.7 135.7 175.3 122C194 108.3 201 94.7 206.7 81.2C212.3 67.7 216.7 54.3 222.3 40.8C228 27.3 235 13.7 238.5 6.8L242 0L278 0L281.5 6.8C285 13.7 292 27.3 295.5 40.8C299 54.3 299 67.7 288.5 81.2C278 94.7 257 108.3 245.3 122C233.7 135.7 231.3 149.3 230.2 163C229 176.7 229 190.3 230.2 203.8C231.3 217.3 233.7 230.7 214 244.2C194.3 257.7 152.7 271.3 131.8 278.2L111 285Z" fill="#323bfa"></path><path d="M13 285L16.5 278.2C20 271.3 27 257.7 31.7 244.2C36.3 230.7 38.7 217.3 37.5 203.8C36.3 190.3 31.7 176.7 30.5 163C29.3 149.3 31.7 135.7 30.5 122C29.3 108.3 24.7 94.7 22.3 81.2C20 67.7 20 54.3 22.3 40.8C24.7 27.3 29.3 13.7 31.7 6.8L34 0L243 0L239.5 6.8C236 13.7 229 27.3 223.3 40.8C217.7 54.3 213.3 67.7 207.7 81.2C202 94.7 195 108.3 176.3 122C157.7 135.7 127.3 149.3 115.7 163C104 176.7 111 190.3 125 203.8C139 217.3 160 230.7 154.2 244.2C148.3 257.7 115.7 271.3 99.3 278.2L83 285Z" fill="#232bf8"></path><path d="M0 285L0 278.2C0 271.3 0 257.7 0 244.2C0 230.7 0 217.3 0 203.8C0 190.3 0 176.7 0 163C0 149.3 0 135.7 0 122C0 108.3 0 94.7 0 81.2C0 67.7 0 54.3 0 40.8C0 27.3 0 13.7 0 6.8L0 0L35 0L32.7 6.8C30.3 13.7 25.7 27.3 23.3 40.8C21 54.3 21 67.7 23.3 81.2C25.7 94.7 30.3 108.3 31.5 122C32.7 135.7 30.3 149.3 31.5 163C32.7 176.7 37.3 190.3 38.5 203.8C39.7 217.3 37.3 230.7 32.7 244.2C28 257.7 21 271.3 17.5 278.2L14 285Z" fill="#0a17f6"></path></svg>