<svg width="1440" height="389" viewBox="0 0 1440 389" fill="none" xmlns="http://www.w3.org/2000/svg">
<path d="M0 359.918L24 364.788C48 369.869 96 379.608 144 384.266C192 388.923 240 388.076 288 381.513C336 374.738 384 362.035 432 355.684C480 349.332 528 349.332 576 349.967C624 350.814 672 352.085 720 359.918C768 367.752 816 381.725 864 386.383C912 391.04 960 385.959 1008 377.914C1056 369.869 1104 358.436 1152 355.684C1200 352.931 1248 358.436 1296 364.576C1344 370.504 1392 376.855 1416 380.031L1440 383.207V0H1416C1392 0 1344 0 1296 0C1248 0 1200 0 1152 0C1104 0 1056 0 1008 0C960 0 912 0 864 0C816 0 768 0 720 0C672 0 624 0 576 0C528 0 480 0 432 0C384 0 336 0 288 0C240 0 192 0 144 0C96 0 48 0 24 0H0V359.918Z" fill="#969FF6"/>
<path d="M0 351.449H24C48 351.449 96 351.449 144 352.931C192 354.202 240 357.166 288 354.625C336 352.085 384 344.463 432 338.111C480 331.76 528 326.679 576 326.679C624 326.679 672 331.76 720 340.864C768 349.967 816 363.517 864 364.576C912 365.634 960 354.202 1008 349.332C1056 344.463 1104 345.733 1152 342.557C1200 339.382 1248 331.76 1296 328.584C1344 325.408 1392 326.679 1416 327.526L1440 328.161V0H1416C1392 0 1344 0 1296 0C1248 0 1200 0 1152 0C1104 0 1056 0 1008 0C960 0 912 0 864 0C816 0 768 0 720 0C672 0 624 0 576 0C528 0 480 0 432 0C384 0 336 0 288 0C240 0 192 0 144 0C96 0 48 0 24 0H0V351.449Z" fill="#8B95F8"/>
<path d="M0 349.332H24C48 349.332 96 349.332 144 349.756C192 349.967 240 350.814 288 341.922C336 333.03 384 314.822 432 308.683C480 302.755 528 309.106 576 306.989C624 304.872 672 294.286 720 294.709C768 294.921 816 306.354 864 311.223C912 316.093 960 314.822 1008 309.529C1056 304.237 1104 294.921 1152 291.11C1200 287.299 1248 288.57 1296 291.745C1344 294.921 1392 300.002 1416 302.331L1440 304.872V0H1416C1392 0 1344 0 1296 0C1248 0 1200 0 1152 0C1104 0 1056 0 1008 0C960 0 912 0 864 0C816 0 768 0 720 0C672 0 624 0 576 0C528 0 480 0 432 0C384 0 336 0 288 0C240 0 192 0 144 0C96 0 48 0 24 0H0V349.332Z" fill="#818AF9"/>
<path d="M0 273.115L24 274.808C48 276.714 96 280.101 144 283.277C192 286.453 240 289.417 288 292.169C336 294.921 384 297.885 432 299.156C480 300.638 528 300.638 576 297.462C624 294.286 672 287.935 720 285.818C768 283.7 816 285.818 864 291.111C912 296.403 960 304.872 1008 308.471C1056 311.859 1104 310.588 1152 301.061C1200 291.534 1248 273.75 1296 270.997C1344 268.245 1392 280.101 1416 286.241L1440 292.169V0H1416C1392 0 1344 0 1296 0C1248 0 1200 0 1152 0C1104 0 1056 0 1008 0C960 0 912 0 864 0C816 0 768 0 720 0C672 0 624 0 576 0C528 0 480 0 432 0C384 0 336 0 288 0C240 0 192 0 144 0C96 0 48 0 24 0H0V273.115Z" fill="#7680FB"/>
<path d="M0 273.114L24 271.421C48 269.515 96 266.128 144 264.011C192 261.893 240 261.047 288 263.587C336 266.128 384 271.632 432 268.245C480 264.646 528 251.943 576 244.533C624 237.123 672 235.005 720 241.78C768 248.344 816 264.011 864 262.952C912 261.893 960 244.109 1008 243.474C1056 242.839 1104 258.929 1152 264.646C1200 270.362 1248 265.281 1296 258.294C1344 251.308 1392 241.992 1416 237.546L1440 232.888V0H1416C1392 0 1344 0 1296 0C1248 0 1200 0 1152 0C1104 0 1056 0 1008 0C960 0 912 0 864 0C816 0 768 0 720 0C672 0 624 0 576 0C528 0 480 0 432 0C384 0 336 0 288 0C240 0 192 0 144 0C96 0 48 0 24 0H0V273.114Z" fill="#6C75FB"/>
<path d="M0 249.825L24 242.415C48 235.005 96 220.185 144 215.951C192 211.716 240 218.068 288 224.843C336 231.406 384 238.604 432 237.546C480 236.487 528 227.172 576 219.762C624 212.352 672 206.847 720 211.716C768 216.586 816 232.253 864 233.311C912 234.37 960 220.82 1008 215.951C1056 211.081 1104 214.469 1152 213.198C1200 211.716 1248 205.365 1296 207.482C1344 209.599 1392 220.185 1416 225.478L1440 230.771V0H1416C1392 0 1344 0 1296 0C1248 0 1200 0 1152 0C1104 0 1056 0 1008 0C960 0 912 0 864 0C816 0 768 0 720 0C672 0 624 0 576 0C528 0 480 0 432 0C384 0 336 0 288 0C240 0 192 0 144 0C96 0 48 0 24 0H0V249.825Z" fill="#616BFC"/>
<path d="M0 173.608L24 181.018C48 188.428 96 203.248 144 205.365C192 207.482 240 196.896 288 189.91C336 182.711 384 179.324 432 177.207C480 175.09 528 174.243 576 174.666C624 175.09 672 176.36 720 177.419C768 178.477 816 179.324 864 183.77C912 188.428 960 196.896 1008 200.496C1056 203.883 1104 202.613 1152 199.649C1200 196.896 1248 192.662 1296 195.203C1344 197.532 1392 206.847 1416 211.293L1440 215.951V0H1416C1392 0 1344 0 1296 0C1248 0 1200 0 1152 0C1104 0 1056 0 1008 0C960 0 912 0 864 0C816 0 768 0 720 0C672 0 624 0 576 0C528 0 480 0 432 0C384 0 336 0 288 0C240 0 192 0 144 0C96 0 48 0 24 0H0V173.608Z" fill="#575FFC"/>
<path d="M0 179.959L24 177.842C48 175.725 96 171.49 144 167.256C192 163.022 240 158.787 288 159.846C336 160.905 384 167.256 432 168.95C480 170.855 528 167.891 576 168.95C624 170.008 672 175.09 720 173.608C768 172.126 816 164.504 864 164.715C912 165.139 960 173.608 1008 176.148C1056 178.477 1104 175.09 1152 174.666C1200 174.243 1248 177.207 1296 176.783C1344 176.36 1392 172.972 1416 171.067L1440 169.373V0H1416C1392 0 1344 0 1296 0C1248 0 1200 0 1152 0C1104 0 1056 0 1008 0C960 0 912 0 864 0C816 0 768 0 720 0C672 0 624 0 576 0C528 0 480 0 432 0C384 0 336 0 288 0C240 0 192 0 144 0C96 0 48 0 24 0H0V179.959Z" fill="#4B54FC"/>
<path d="M0 135.499L24 134.44C48 133.381 96 131.264 144 129.782C192 128.512 240 127.665 288 127.453C336 127.03 384 127.03 432 127.453C480 127.665 528 128.512 576 132.323C624 136.134 672 143.332 720 144.602C768 146.084 816 141.85 864 139.733C912 137.616 960 137.616 1008 135.922C1056 134.017 1104 130.629 1152 131.688C1200 132.746 1248 138.251 1296 139.31C1344 140.368 1392 136.981 1416 135.075L1440 133.381V0H1416C1392 0 1344 0 1296 0C1248 0 1200 0 1152 0C1104 0 1056 0 1008 0C960 0 912 0 864 0C816 0 768 0 720 0C672 0 624 0 576 0C528 0 480 0 432 0C384 0 336 0 288 0C240 0 192 0 144 0C96 0 48 0 24 0H0V135.499Z" fill="#3F48FB"/>
<path d="M0 91.0381L24 94.6373C48 98.0248 96 105.223 144 109.457C192 113.692 240 114.962 288 114.962C336 114.962 384 113.692 432 112.21C480 110.728 528 109.457 576 104.8C624 100.142 672 92.5201 720 90.403C768 88.2858 816 91.6733 864 93.7904C912 95.9076 960 96.7545 1008 96.9662C1056 97.3896 1104 97.3896 1152 96.9662C1200 96.7545 1248 95.9076 1296 97.813C1344 99.5068 1392 103.741 1416 105.858L1440 107.975V0H1416C1392 0 1344 0 1296 0C1248 0 1200 0 1152 0C1104 0 1056 0 1008 0C960 0 912 0 864 0C816 0 768 0 720 0C672 0 624 0 576 0C528 0 480 0 432 0C384 0 336 0 288 0C240 0 192 0 144 0C96 0 48 0 24 0H0V91.0381Z" fill="#323BFA"/>
<path d="M0 46.5777L24 47.2128C48 48.0597 96 49.33 144 55.0463C192 60.7627 240 70.5016 288 70.5016C336 70.5016 384 60.7627 432 58.6455C480 56.5283 528 62.033 576 63.0916C624 64.1501 672 60.7627 720 63.0916C768 65.6322 816 74.1008 864 77.9117C912 81.9343 960 81.0875 1008 80.4523C1056 79.8172 1104 78.9703 1152 77.9117C1200 76.8531 1248 75.5828 1296 74.1008C1344 72.6188 1392 71.3485 1416 70.5016L1440 69.8665V0H1416C1392 0 1344 0 1296 0C1248 0 1200 0 1152 0C1104 0 1056 0 1008 0C960 0 912 0 864 0C816 0 768 0 720 0C672 0 624 0 576 0C528 0 480 0 432 0C384 0 336 0 288 0C240 0 192 0 144 0C96 0 48 0 24 0H0V46.5777Z" fill="#232BF8"/>
<path d="M0 25.406L24 26.888C48 28.1583 96 31.1223 144 30.2755C192 29.6403 240 25.406 288 24.9825C336 24.7708 384 28.1583 432 31.334C480 34.5098 528 37.4738 576 36.6269C624 35.9918 672 31.7575 720 31.7575C768 31.7575 816 35.9918 864 39.591C912 42.9784 960 45.9425 1008 45.519C1056 45.0956 1104 41.7081 1152 40.6496C1200 39.591 1248 40.8613 1296 41.7081C1344 42.3433 1392 42.3433 1416 42.3433H1440V0H1416C1392 0 1344 0 1296 0C1248 0 1200 0 1152 0C1104 0 1056 0 1008 0C960 0 912 0 864 0C816 0 768 0 720 0C672 0 624 0 576 0C528 0 480 0 432 0C384 0 336 0 288 0C240 0 192 0 144 0C96 0 48 0 24 0H0V25.406Z" fill="#0A17F6"/>
</svg>
