<svg id="visual" viewBox="0 0 695 285" width="695" height="285" xmlns="http://www.w3.org/2000/svg" xmlns:xlink="http://www.w3.org/1999/xlink" version="1.1"><path d="M562 285L573.5 278.2C585 271.3 608 257.7 610.3 244.2C612.7 230.7 594.3 217.3 584 203.8C573.7 190.3 571.3 176.7 562 163C552.7 149.3 536.3 135.7 524.7 122C513 108.3 506 94.7 513 81.2C520 67.7 541 54.3 551.5 40.8C562 27.3 562 13.7 562 6.8L562 0L695 0L695 6.8C695 13.7 695 27.3 695 40.8C695 54.3 695 67.7 695 81.2C695 94.7 695 108.3 695 122C695 135.7 695 149.3 695 163C695 176.7 695 190.3 695 203.8C695 217.3 695 230.7 695 244.2C695 257.7 695 271.3 695 278.2L695 285Z" fill="#0a17f6"></path><path d="M527 285L532.8 278.2C538.7 271.3 550.3 257.7 555 244.2C559.7 230.7 557.3 217.3 549.2 203.8C541 190.3 527 176.7 508.5 163C490 149.3 467 135.7 457.8 122C448.7 108.3 453.3 94.7 466 81.2C478.7 67.7 499.3 54.3 512 40.8C524.7 27.3 529.3 13.7 531.7 6.8L534 0L563 0L563 6.8C563 13.7 563 27.3 552.5 40.8C542 54.3 521 67.7 514 81.2C507 94.7 514 108.3 525.7 122C537.3 135.7 553.7 149.3 563 163C572.3 176.7 574.7 190.3 585 203.8C595.3 217.3 613.7 230.7 611.3 244.2C609 257.7 586 271.3 574.5 278.2L563 285Z" fill="#232bf8"></path><path d="M479 285L489.3 278.2C499.7 271.3 520.3 257.7 530.7 244.2C541 230.7 541 217.3 529.5 203.8C518 190.3 495 176.7 473 163C451 149.3 430 135.7 425.3 122C420.7 108.3 432.3 94.7 444 81.2C455.7 67.7 467.3 54.3 474.2 40.8C481 27.3 483 13.7 484 6.8L485 0L535 0L532.7 6.8C530.3 13.7 525.7 27.3 513 40.8C500.3 54.3 479.7 67.7 467 81.2C454.3 94.7 449.7 108.3 458.8 122C468 135.7 491 149.3 509.5 163C528 176.7 542 190.3 550.2 203.8C558.3 217.3 560.7 230.7 556 244.2C551.3 257.7 539.7 271.3 533.8 278.2L528 285Z" fill="#323bfa"></path><path d="M367 285L363.7 278.2C360.3 271.3 353.7 257.7 359.5 244.2C365.3 230.7 383.7 217.3 389.3 203.8C395 190.3 388 176.7 378.8 163C369.7 149.3 358.3 135.7 344.5 122C330.7 108.3 314.3 94.7 315.3 81.2C316.3 67.7 334.7 54.3 343.8 40.8C353 27.3 353 13.7 353 6.8L353 0L486 0L485 6.8C484 13.7 482 27.3 475.2 40.8C468.3 54.3 456.7 67.7 445 81.2C433.3 94.7 421.7 108.3 426.3 122C431 135.7 452 149.3 474 163C496 176.7 519 190.3 530.5 203.8C542 217.3 542 230.7 531.7 244.2C521.3 257.7 500.7 271.3 490.3 278.2L480 285Z" fill="#3f48fb"></path><path d="M263 285L270 278.2C277 271.3 291 257.7 299.2 244.2C307.3 230.7 309.7 217.3 314.3 203.8C319 190.3 326 176.7 328.3 163C330.7 149.3 328.3 135.7 314.3 122C300.3 108.3 274.7 94.7 264.2 81.2C253.7 67.7 258.3 54.3 263 40.8C267.7 27.3 272.3 13.7 274.7 6.8L277 0L354 0L354 6.8C354 13.7 354 27.3 344.8 40.8C335.7 54.3 317.3 67.7 316.3 81.2C315.3 94.7 331.7 108.3 345.5 122C359.3 135.7 370.7 149.3 379.8 163C389 176.7 396 190.3 390.3 203.8C384.7 217.3 366.3 230.7 360.5 244.2C354.7 257.7 361.3 271.3 364.7 278.2L368 285Z" fill="#4b54fc"></path><path d="M221 285L226.8 278.2C232.7 271.3 244.3 257.7 251.3 244.2C258.3 230.7 260.7 217.3 268.8 203.8C277 190.3 291 176.7 296.8 163C302.7 149.3 300.3 135.7 285.2 122C270 108.3 242 94.7 225.8 81.2C209.7 67.7 205.3 54.3 213.5 40.8C221.7 27.3 242.3 13.7 252.7 6.8L263 0L278 0L275.7 6.8C273.3 13.7 268.7 27.3 264 40.8C259.3 54.3 254.7 67.7 265.2 81.2C275.7 94.7 301.3 108.3 315.3 122C329.3 135.7 331.7 149.3 329.3 163C327 176.7 320 190.3 315.3 203.8C310.7 217.3 308.3 230.7 300.2 244.2C292 257.7 278 271.3 271 278.2L264 285Z" fill="#575ffc"></path><path d="M201 285L206.7 278.2C212.3 271.3 223.7 257.7 230.5 244.2C237.3 230.7 239.7 217.3 245.5 203.8C251.3 190.3 260.7 176.7 264.2 163C267.7 149.3 265.3 135.7 249.2 122C233 108.3 203 94.7 190.3 81.2C177.7 67.7 182.3 54.3 189.2 40.8C196 27.3 205 13.7 209.5 6.8L214 0L264 0L253.7 6.8C243.3 13.7 222.7 27.3 214.5 40.8C206.3 54.3 210.7 67.7 226.8 81.2C243 94.7 271 108.3 286.2 122C301.3 135.7 303.7 149.3 297.8 163C292 176.7 278 190.3 269.8 203.8C261.7 217.3 259.3 230.7 252.3 244.2C245.3 257.7 233.7 271.3 227.8 278.2L222 285Z" fill="#616bfc"></path><path d="M124 285L121.7 278.2C119.3 271.3 114.7 257.7 113.5 244.2C112.3 230.7 114.7 217.3 121.7 203.8C128.7 190.3 140.3 176.7 140.3 163C140.3 149.3 128.7 135.7 122.8 122C117 108.3 117 94.7 117 81.2C117 67.7 117 54.3 120.5 40.8C124 27.3 131 13.7 134.5 6.8L138 0L215 0L210.5 6.8C206 13.7 197 27.3 190.2 40.8C183.3 54.3 178.7 67.7 191.3 81.2C204 94.7 234 108.3 250.2 122C266.3 135.7 268.7 149.3 265.2 163C261.7 176.7 252.3 190.3 246.5 203.8C240.7 217.3 238.3 230.7 231.5 244.2C224.7 257.7 213.3 271.3 207.7 278.2L202 285Z" fill="#6c75fb"></path><path d="M103 285L100.7 278.2C98.3 271.3 93.7 257.7 90.2 244.2C86.7 230.7 84.3 217.3 86.7 203.8C89 190.3 96 176.7 93.7 163C91.3 149.3 79.7 135.7 75 122C70.3 108.3 72.7 94.7 73.8 81.2C75 67.7 75 54.3 79.7 40.8C84.3 27.3 93.7 13.7 98.3 6.8L103 0L139 0L135.5 6.8C132 13.7 125 27.3 121.5 40.8C118 54.3 118 67.7 118 81.2C118 94.7 118 108.3 123.8 122C129.7 135.7 141.3 149.3 141.3 163C141.3 176.7 129.7 190.3 122.7 203.8C115.7 217.3 113.3 230.7 114.5 244.2C115.7 257.7 120.3 271.3 122.7 278.2L125 285Z" fill="#7680fb"></path><path d="M82 285L77.5 278.2C73 271.3 64 257.7 61.7 244.2C59.3 230.7 63.7 217.3 67 203.8C70.3 190.3 72.7 176.7 70.5 163C68.3 149.3 61.7 135.7 59.5 122C57.3 108.3 59.7 94.7 57.3 81.2C55 67.7 48 54.3 48 40.8C48 27.3 55 13.7 58.5 6.8L62 0L104 0L99.3 6.8C94.7 13.7 85.3 27.3 80.7 40.8C76 54.3 76 67.7 74.8 81.2C73.7 94.7 71.3 108.3 76 122C80.7 135.7 92.3 149.3 94.7 163C97 176.7 90 190.3 87.7 203.8C85.3 217.3 87.7 230.7 91.2 244.2C94.7 257.7 99.3 271.3 101.7 278.2L104 285Z" fill="#818af9"></path><path d="M62 285L57.3 278.2C52.7 271.3 43.3 257.7 37.5 244.2C31.7 230.7 29.3 217.3 30.5 203.8C31.7 190.3 36.3 176.7 38.7 163C41 149.3 41 135.7 41 122C41 108.3 41 94.7 38.7 81.2C36.3 67.7 31.7 54.3 29.3 40.8C27 27.3 27 13.7 27 6.8L27 0L63 0L59.5 6.8C56 13.7 49 27.3 49 40.8C49 54.3 56 67.7 58.3 81.2C60.7 94.7 58.3 108.3 60.5 122C62.7 135.7 69.3 149.3 71.5 163C73.7 176.7 71.3 190.3 68 203.8C64.7 217.3 60.3 230.7 62.7 244.2C65 257.7 74 271.3 78.5 278.2L83 285Z" fill="#8b95f8"></path><path d="M0 285L0 278.2C0 271.3 0 257.7 0 244.2C0 230.7 0 217.3 0 203.8C0 190.3 0 176.7 0 163C0 149.3 0 135.7 0 122C0 108.3 0 94.7 0 81.2C0 67.7 0 54.3 0 40.8C0 27.3 0 13.7 0 6.8L0 0L28 0L28 6.8C28 13.7 28 27.3 30.3 40.8C32.7 54.3 37.3 67.7 39.7 81.2C42 94.7 42 108.3 42 122C42 135.7 42 149.3 39.7 163C37.3 176.7 32.7 190.3 31.5 203.8C30.3 217.3 32.7 230.7 38.5 244.2C44.3 257.7 53.7 271.3 58.3 278.2L63 285Z" fill="#969ff6"></path></svg>